<svg xmlns="http://www.w3.org/2000/svg" width="14.592" height="10.032" viewBox="0 0 14.592 10.032">
  <g id="credit-card_2_" data-name="credit-card (2)" transform="translate(0 -80)">
    <path id="Path_61" data-name="Path 61" d="M14.592,82.366V81.6A1.6,1.6,0,0,0,13,80H1.6A1.6,1.6,0,0,0,0,81.6v.77a.143.143,0,0,0,.143.143H14.45A.143.143,0,0,0,14.592,82.366Z" fill="#fff"/>
    <path id="Path_62" data-name="Path 62" d="M0,200.143v4.874a1.6,1.6,0,0,0,1.6,1.6H13a1.6,1.6,0,0,0,1.6-1.6v-4.874A.143.143,0,0,0,14.45,200H.143A.143.143,0,0,0,0,200.143Zm3.648,3.734a.456.456,0,0,1-.456.456H2.736a.456.456,0,0,1-.456-.456v-.456a.456.456,0,0,1,.456-.456h.456a.456.456,0,0,1,.456.456Z" transform="translate(0 -116.58)" fill="#fff"/>
  </g>
</svg>
