<svg xmlns="http://www.w3.org/2000/svg" width="8.239" height="8.239" viewBox="0 0 8.239 8.239">
  <g id="currency" transform="translate(2 1)">
    <path id="Path_21" data-name="Path 21" d="M7.246,1A1.993,1.993,0,1,0,9.239,2.993,2,2,0,0,0,7.246,1Zm0,1.86a.664.664,0,0,1,.133,1.315v.146a.133.133,0,0,1-.266,0V4.176a.666.666,0,0,1-.532-.651.133.133,0,1,1,.266,0,.4.4,0,1,0,.4-.4.664.664,0,0,1-.133-1.315V1.664a.133.133,0,1,1,.266,0v.146a.666.666,0,0,1,.532.651.133.133,0,1,1-.266,0,.4.4,0,1,0-.4.4ZM2.993,1A1.993,1.993,0,1,0,4.987,2.993,2,2,0,0,0,2.993,1Zm.9,1.01-.638.85h.4a.133.133,0,0,1,0,.266H3.126v.266h.532a.133.133,0,0,1,0,.266H3.126v.664a.133.133,0,0,1-.266,0V3.658H2.329a.133.133,0,1,1,0-.266H2.86V3.126H2.329a.133.133,0,1,1,0-.266h.4L2.09,2.01A.133.133,0,1,1,2.3,1.85l.691.921.691-.921A.133.133,0,1,1,3.9,2.01Zm-.9,3.242A1.993,1.993,0,1,0,4.987,7.246,2,2,0,0,0,2.993,5.252Zm0,1.595a.133.133,0,1,1,0,.266H2.34a.836.836,0,0,0,0,.266h.654a.133.133,0,1,1,0,.266H2.42a.93.93,0,0,0,.839.532.941.941,0,0,0,.349-.068.133.133,0,0,1,.1.247,1.2,1.2,0,0,1-1.574-.711H1.8a.133.133,0,1,1,0-.266h.274a1.13,1.13,0,0,1,0-.266H1.8a.133.133,0,0,1,0-.266h.336a1.2,1.2,0,0,1,1.574-.711.133.133,0,0,1-.1.247.93.93,0,0,0-1.189.464ZM7.246,5.252A1.993,1.993,0,1,0,9.239,7.246,2,2,0,0,0,7.246,5.252Zm.8,3.189H6.448a.133.133,0,0,1-.106-.213l.239-.319a.8.8,0,0,0,.133-.4V7.379H6.448a.133.133,0,0,1,0-.266h.266V6.448a.664.664,0,1,1,1.329,0,.133.133,0,1,1-.266,0,.4.4,0,0,0-.8,0v.664h.532a.133.133,0,0,1,0,.266H6.98v.133a1.069,1.069,0,0,1-.186.558l-.08.106H8.043a.133.133,0,1,1,0,.266Z" transform="translate(-3 -2)" fill="#8aa3cf"/>
  </g>
</svg>
