<svg xmlns="http://www.w3.org/2000/svg" width="45.554" height="38.565" viewBox="0 0 45.554 38.565">
  <g id="diamond_6_" data-name="diamond (6)" transform="translate(0 -39.279)">
    <g id="Group_59" data-name="Group 59" transform="translate(25.037 49.41)">
      <g id="Group_58" data-name="Group 58" transform="translate(0 0)">
        <path id="Path_71" data-name="Path 71" d="M289.892,153.145,281.4,180.03l20.517-26.885Z" transform="translate(-281.402 -153.145)" fill="#8aa3cf"/>
      </g>
    </g>
    <g id="Group_61" data-name="Group 61" transform="translate(0.096 39.9)">
      <g id="Group_60" data-name="Group 60" transform="translate(0 0)">
        <path id="Path_72" data-name="Path 72" d="M7.6,46.263,1.082,54.084h11.08Z" transform="translate(-1.082 -46.263)" fill="#8aa3cf"/>
      </g>
    </g>
    <g id="Group_63" data-name="Group 63" transform="translate(34.378 39.9)">
      <g id="Group_62" data-name="Group 62" transform="translate(0 0)">
        <path id="Path_73" data-name="Path 73" d="M390.948,46.263l-4.562,7.821h11.08Z" transform="translate(-386.386 -46.263)" fill="#8aa3cf"/>
      </g>
    </g>
    <g id="Group_65" data-name="Group 65" transform="translate(0 49.41)">
      <g id="Group_64" data-name="Group 64" transform="translate(0 0)">
        <path id="Path_74" data-name="Path 74" d="M12.027,153.145H0L20.517,180.03Z" transform="translate(0 -153.145)" fill="#8aa3cf"/>
      </g>
    </g>
    <g id="Group_67" data-name="Group 67" transform="translate(24.815 39.279)">
      <g id="Group_66" data-name="Group 66" transform="translate(0 0)">
        <path id="Path_75" data-name="Path 75" d="M278.906,39.279l7.916,7.916,4.617-7.916Z" transform="translate(-278.906 -39.279)" fill="#8aa3cf"/>
      </g>
    </g>
    <g id="Group_69" data-name="Group 69" transform="translate(8.206 39.279)">
      <g id="Group_68" data-name="Group 68" transform="translate(0 0)">
        <path id="Path_76" data-name="Path 76" d="M92.232,39.279l4.617,7.916,7.916-7.916Z" transform="translate(-92.232 -39.279)" fill="#8aa3cf"/>
      </g>
    </g>
    <g id="Group_71" data-name="Group 71" transform="translate(13.798 49.41)">
      <g id="Group_70" data-name="Group 70" transform="translate(0 0)">
        <path id="Path_77" data-name="Path 77" d="M155.076,153.145l8.98,28.434,8.98-28.434Z" transform="translate(-155.076 -153.145)" fill="#8aa3cf"/>
      </g>
    </g>
    <g id="Group_73" data-name="Group 73" transform="translate(14.684 39.629)">
      <g id="Group_72" data-name="Group 72" transform="translate(0 0)">
        <path id="Path_78" data-name="Path 78" d="M173.133,43.208,165.04,51.3h16.186Z" transform="translate(-165.04 -43.208)" fill="#8aa3cf"/>
      </g>
    </g>
  </g>
</svg>
