<svg xmlns="http://www.w3.org/2000/svg" width="21.011" height="14.773" viewBox="0 0 21.011 14.773">
  <g id="email" transform="translate(0 -76)">
    <g id="Group_30" data-name="Group 30" transform="translate(0 76)">
      <path id="Path_41" data-name="Path 41" d="M19.164,76H1.847A1.849,1.849,0,0,0,0,77.847v11.08a1.849,1.849,0,0,0,1.847,1.847H19.164a1.849,1.849,0,0,0,1.847-1.847V77.847A1.849,1.849,0,0,0,19.164,76Zm-.284,1.231-7.9,7.924a.719.719,0,0,1-.954,0l-7.9-7.924ZM1.231,88.7V78.073l5.3,5.314Zm.9.842L7.4,84.259l1.76,1.766a1.948,1.948,0,0,0,2.7,0l1.76-1.766,5.266,5.284ZM19.78,88.7l-5.3-5.314,5.3-5.314Z" transform="translate(0 -76)" fill="#8aa3cf"/>
    </g>
  </g>
</svg>
