<svg xmlns="http://www.w3.org/2000/svg" width="19.997" height="18.997" viewBox="0 0 19.997 18.997">
  <g id="feedback_1_" data-name="feedback (1)" transform="translate(-0.001 -0.5)">
    <path id="Path_30" data-name="Path 30" d="M315.051,1.647l-1-1a.5.5,0,0,0-.707,0h0l-6,6A.5.5,0,0,0,307.2,7V8a.5.5,0,0,0,.5.5h1a.5.5,0,0,0,.353-.146l6-6a.5.5,0,0,0,0-.707h0Zm0,0" transform="translate(-295.2 0)" fill="#8aa3cf"/>
    <path id="Path_31" data-name="Path 31" d="M13.5,58.7h-1A1.5,1.5,0,0,1,11,57.2v-1a1.491,1.491,0,0,1,.439-1.06L14.877,51.7H2.5A2.5,2.5,0,0,0,0,54.2v9a2.5,2.5,0,0,0,2.5,2.5H7v2.5a.5.5,0,0,0,.8.4l3.867-2.9H16.5A2.5,2.5,0,0,0,19,63.2V53.82l-4.439,4.439a1.49,1.49,0,0,1-1.06.439Zm-10-4h5a.5.5,0,0,1,0,1h-5a.5.5,0,1,1,0-1Zm0,3h5a.5.5,0,0,1,0,1h-5a.5.5,0,0,1,0-1ZM16,61.2a.5.5,0,0,1-.5.5H3.5a.5.5,0,0,1,0-1h12A.5.5,0,0,1,16,61.2Zm0,0" transform="translate(0 -49.199)" fill="#8aa3cf"/>
  </g>
</svg>
