<svg xmlns="http://www.w3.org/2000/svg" width="12.307" height="12.307" viewBox="0 0 12.307 12.307">
  <g id="filter" transform="translate(0 0)">
    <path id="Path_37" data-name="Path 37" d="M10.1,0H2.21A2.213,2.213,0,0,0,0,2.21V10.1a2.213,2.213,0,0,0,2.21,2.21H10.1a2.213,2.213,0,0,0,2.21-2.21V2.21A2.213,2.213,0,0,0,10.1,0Zm.3,9.6H6.456a1.135,1.135,0,0,1-2.15,0h-2.4a.362.362,0,0,1,0-.724h2.4a1.135,1.135,0,0,1,2.15,0H10.4A.362.362,0,0,1,10.4,9.6Zm0-3.089H9.545a1.135,1.135,0,0,1-2.15,0H1.906a.362.362,0,0,1,0-.724H7.4a1.135,1.135,0,0,1,2.15,0H10.4A.362.362,0,0,1,10.4,6.516Zm0-3.089H4.912a1.135,1.135,0,0,1-2.15,0H1.906a.362.362,0,0,1,0-.724h.855a1.135,1.135,0,0,1,2.15,0H10.4A.362.362,0,0,1,10.4,3.427Z" fill="#8aa3cf"/>
    <path id="Path_38" data-name="Path 38" d="M207.351,367.435a.41.41,0,0,0,0,.82A.41.41,0,0,0,207.351,367.435Z" transform="translate(-201.969 -358.603)" fill="#8aa3cf"/>
    <path id="Path_39" data-name="Path 39" d="M143.1,110.431a.41.41,0,0,0,0,.82A.41.41,0,0,0,143.1,110.431Z" transform="translate(-139.263 -107.777)" fill="#8aa3cf"/>
    <path id="Path_40" data-name="Path 40" d="M335.852,238.933a.41.41,0,0,0,0,.82A.41.41,0,0,0,335.852,238.933Z" transform="translate(-327.382 -233.19)" fill="#8aa3cf"/>
  </g>
</svg>
