<svg xmlns="http://www.w3.org/2000/svg" width="20.168" height="16.415" viewBox="0 0 20.168 16.415">
  <g id="group" transform="translate(-1.249 -3.25)">
    <path id="Path_32" data-name="Path 32" d="M16.552,15.075a4.477,4.477,0,0,0-4.409-3.825h-1a4.477,4.477,0,0,0-4.409,3.825L6.259,18.42a.7.7,0,0,0,.2.6c.188.188,1.339,1.144,5.187,1.144s5-.953,5.187-1.144a.7.7,0,0,0,.2-.6Z" transform="translate(-0.31 -0.496)" fill="#8aa3cf"/>
    <path id="Path_33" data-name="Path 33" d="M7.169,11.766a5.347,5.347,0,0,0-1.67,3.18l-.347,2.4c-2.786-.019-3.63-1.032-3.771-1.238a.693.693,0,0,1-.122-.525l.206-1.163a3.839,3.839,0,0,1,5.7-2.655Z" transform="translate(0 -0.496)" fill="#8aa3cf"/>
    <path id="Path_34" data-name="Path 34" d="M22.349,15.584a.693.693,0,0,1-.122.525c-.141.206-.985,1.219-3.771,1.238l-.347-2.4a5.347,5.347,0,0,0-1.67-3.18,3.839,3.839,0,0,1,5.7,2.655Z" transform="translate(-0.942 -0.496)" fill="#8aa3cf"/>
    <path id="Path_35" data-name="Path 35" d="M7.421,9.33a2.546,2.546,0,0,1-2.092,1.079A2.579,2.579,0,1,1,6.877,5.766a4.514,4.514,0,0,0-.141,1.126A4.7,4.7,0,0,0,7.421,9.33Z" transform="translate(-0.093 -0.124)" fill="#8aa3cf"/>
    <path id="Path_36" data-name="Path 36" d="M20.941,7.829a2.578,2.578,0,0,1-2.579,2.579A2.546,2.546,0,0,1,16.27,9.33a4.7,4.7,0,0,0,.685-2.439,4.514,4.514,0,0,0-.141-1.126,2.579,2.579,0,0,1,4.127,2.064Z" transform="translate(-0.931 -0.124)" fill="#8aa3cf"/>
    <circle id="Ellipse_5" data-name="Ellipse 5" cx="3.517" cy="3.517" r="3.517" transform="translate(7.816 3.25)" fill="#8aa3cf"/>
  </g>
</svg>
