<svg xmlns="http://www.w3.org/2000/svg" width="71" height="71" viewBox="0 0 71 71">
  <g id="Group_37" data-name="Group 37" transform="translate(-167 -96)">
    <circle id="Ellipse_6" data-name="Ellipse 6" cx="35.5" cy="35.5" r="35.5" transform="translate(167 96)" fill="#8aa3cf"/>
    <g id="user" transform="translate(183.707 113.206)">
      <ellipse id="Ellipse_8" data-name="Ellipse 8" cx="9.008" cy="8.558" rx="9.008" ry="8.558" transform="translate(9.205 2)" fill="#fff"/>
      <path id="Path_45" data-name="Path 45" d="M34.452,39.809A12.947,12.947,0,0,0,24.37,30.387a9.831,9.831,0,0,1-12.152,0A12.948,12.948,0,0,0,2.135,39.809,4.015,4.015,0,0,0,4.51,44.568c.034.012.063.023.09.034,2.259.848,6.464,1.854,13.694,1.854,7.248,0,11.456-1.011,13.711-1.859l.058-.023a4.02,4.02,0,0,0,2.389-4.765Z" transform="translate(0 -11.867)" fill="#fff"/>
    </g>
    <circle id="Ellipse_7" data-name="Ellipse 7" cx="7" cy="7" r="7" transform="translate(218 149)" fill="#fff"/>
    <g id="plus" transform="translate(221.782 152.781)">
      <g id="Group_36" data-name="Group 36">
        <path id="Path_44" data-name="Path 44" d="M6.186,2.967H3.47V.251a.251.251,0,1,0-.5,0V2.967H.251a.251.251,0,1,0,0,.5H2.967V6.186a.251.251,0,1,0,.5,0V3.47H6.186a.251.251,0,1,0,0-.5Z" fill="#011c43"/>
      </g>
    </g>
  </g>
</svg>
