<svg xmlns="http://www.w3.org/2000/svg" width="18" height="18" viewBox="0 0 18 18">
  <g id="Ikon" transform="translate(-2 -2)">
    <path id="Path_79" data-name="Path 79" d="M20,11A9,9,0,1,1,2,11a.643.643,0,0,1,1.286,0A7.726,7.726,0,1,0,6.744,4.571h.4a.643.643,0,0,1,0,1.286H5.214a.642.642,0,0,1-.643-.643V3.286a.643.643,0,0,1,1.286,0v.33A9,9,0,0,1,20,11Zm-3.214,0A5.786,5.786,0,1,1,11,5.214,5.786,5.786,0,0,1,16.786,11Zm-3.5.751-1.642-1.095V7.786a.643.643,0,0,0-1.286,0V11a.643.643,0,0,0,.286.535l1.929,1.286a.643.643,0,1,0,.713-1.07Z" transform="translate(0 0)" fill="#8aa3cf"/>
  </g>
</svg>
