<svg xmlns="http://www.w3.org/2000/svg" width="28" height="20.2" viewBox="0 0 28 20.2">
  <g id="Layer_2" data-name="Layer 2" transform="translate(-2 -5.9)">
    <path id="Path_12" data-name="Path 12" d="M29,5.9H3a1,1,0,0,0-1,1v6.5a1,1,0,0,0,1,1,1.6,1.6,0,0,1,0,3.2,1,1,0,0,0-1,1v6.5a1,1,0,0,0,1,1H29a1,1,0,0,0,1-1V18.6a1,1,0,0,0-1-1,1.6,1.6,0,0,1,0-3.2,1,1,0,0,0,1-1V6.9a1,1,0,0,0-1-1ZM11.8,24.1h-2V22a1,1,0,1,1,2,0Zm0-6.1a1,1,0,0,1-2,0V14a1,1,0,0,1,2,0Zm0-8a1,1,0,0,1-2,0V7.9h2Z" fill="#fff"/>
  </g>
</svg>
