<svg xmlns="http://www.w3.org/2000/svg" width="17.37" height="17.37" viewBox="0 0 17.37 17.37">
  <path id="question" d="M8.685,0A8.685,8.685,0,1,0,17.37,8.685,8.695,8.695,0,0,0,8.685,0Zm0,13.751a.724.724,0,1,1,.724-.724A.724.724,0,0,1,8.685,13.751Zm1.146-4.6a.727.727,0,0,0-.422.658v.325a.724.724,0,1,1-1.447,0V9.808A2.18,2.18,0,0,1,9.224,7.835a2.365,2.365,0,0,0,1.27-1.683,1.809,1.809,0,1,0-3.619,0,.724.724,0,1,1-1.448,0,3.257,3.257,0,1,1,6.514,0,3.771,3.771,0,0,1-2.111,3Zm0,0" fill="#8aa3cf"/>
</svg>
