<svg width="34" height="35" viewBox="0 0 34 35" fill="none" xmlns="http://www.w3.org/2000/svg">
<g clip-path="url(#clip0_24_2234)">
<path d="M29.75 0.75H4.25C1.90294 0.75 0 2.65294 0 5V30.5C0 32.8471 1.90294 34.75 4.25 34.75H29.75C32.0971 34.75 34 32.8471 34 30.5V5C34 2.65294 32.0971 0.75 29.75 0.75ZM23.375 18.8125H12.1274L16.5059 23.1911C16.9214 23.6065 16.9214 24.2791 16.5059 24.6934C16.0905 25.1078 15.4179 25.1089 15.0036 24.6934L8.993 18.6829C8.73906 18.4289 8.65939 18.0794 8.71778 17.75C8.65933 17.4206 8.73906 17.0711 8.99406 16.8161L15.0046 10.8055C15.4201 10.3901 16.0926 10.3901 16.507 10.8055C16.9224 11.2209 16.9224 11.8935 16.507 12.3079L12.1274 16.6875H23.375C23.9615 16.6875 24.4375 17.1635 24.4375 17.75C24.4375 18.3365 23.9615 18.8125 23.375 18.8125Z" fill="#4E18E8"/>
</g>
<defs>
<clipPath id="clip0_24_2234">
<rect y="0.75" width="34" height="34" rx="6" fill="white"/>
</clipPath>
</defs>
</svg>
