<svg xmlns="http://www.w3.org/2000/svg" width="14.39" height="17.068" viewBox="0 0 14.39 17.068">
  <g id="shield" transform="translate(-40.168)">
    <g id="Group_27" data-name="Group 27" transform="translate(40.168 0)">
      <path id="Path_29" data-name="Path 29" d="M54.2,2.03,47.507.021a.5.5,0,0,0-.287,0L40.524,2.03a.5.5,0,0,0-.356.479V9.873a4.757,4.757,0,0,0,1.153,2.914,11.915,11.915,0,0,0,2.4,2.225,21.546,21.546,0,0,0,3.436,2.012.5.5,0,0,0,.409,0A21.549,21.549,0,0,0,51,15.012a11.916,11.916,0,0,0,2.4-2.225,4.757,4.757,0,0,0,1.152-2.914V2.509A.5.5,0,0,0,54.2,2.03Z" transform="translate(-40.168 0)" fill="#8aa3cf"/>
    </g>
  </g>
</svg>
