<svg xmlns="http://www.w3.org/2000/svg" width="14.255" height="24.823" viewBox="0 0 14.255 24.823">
  <path id="smartphone" d="M121.561,0H110.67a1.684,1.684,0,0,0-1.682,1.682v21.46a1.684,1.684,0,0,0,1.682,1.682h10.891a1.684,1.684,0,0,0,1.682-1.682V1.682A1.684,1.684,0,0,0,121.561,0Zm.906,23.141a.907.907,0,0,1-.906.906H110.67a.907.907,0,0,1-.906-.906V1.682a.907.907,0,0,1,.906-.906h10.891a.907.907,0,0,1,.906.906v21.46Zm-4.7-21.055a.388.388,0,0,1-.388.388h-2.534a.388.388,0,0,1,0-.776h2.534A.388.388,0,0,1,117.771,2.086Zm-1.655,18.875a1.3,1.3,0,1,0,1.3,1.3A1.306,1.306,0,0,0,116.116,20.961Zm0,1.833a.529.529,0,1,1,.529-.529.529.529,0,0,1-.529.529Z" transform="translate(-108.988)" fill="#8aa3cf"/>
</svg>
