<svg xmlns="http://www.w3.org/2000/svg" width="25" height="25" viewBox="0 0 25 25">
  <g id="Solid" transform="translate(-24 -24)">
    <path id="Path_10" data-name="Path 10" d="M139.449,146.745l-4.877-4.877a1.293,1.293,0,1,0-1.829,1.829l2.669,2.669h-14.12a1.293,1.293,0,1,0,0,2.586h14.12l-2.669,2.669a1.293,1.293,0,0,0,1.829,1.829l4.877-4.877A1.293,1.293,0,0,0,139.449,146.745Z" transform="translate(-90.828 -111.16)" fill="#fff"/>
    <path id="Path_11" data-name="Path 11" d="M39.086,43.828a1.293,1.293,0,0,0-1.293,1.293v1.293H26.586V26.586H37.793v1.293a1.293,1.293,0,0,0,2.586,0V26.155A2.155,2.155,0,0,0,38.224,24H26.155A2.155,2.155,0,0,0,24,26.155v20.69A2.155,2.155,0,0,0,26.155,49H38.224a2.155,2.155,0,0,0,2.155-2.155V45.121A1.293,1.293,0,0,0,39.086,43.828Z" fill="#fff"/>
  </g>
</svg>
