<svg xmlns="http://www.w3.org/2000/svg" width="10.173" height="9.588" viewBox="0 0 10.173 9.588">
  <path id="support_1_" data-name="support (1)" d="M6.113,23.68a.637.637,0,0,0-.637-.637H4.7a.637.637,0,0,0,0,1.273h.78A.637.637,0,0,0,6.113,23.68ZM1.338,22.038a2.758,2.758,0,0,0,.364.005A1.807,1.807,0,0,0,3.476,23.5h.243a1,1,0,0,0,0,.358H3.476a2.165,2.165,0,0,1-2.137-1.82Zm-.182-.381A1.387,1.387,0,0,1,0,20.29v-.845a1.387,1.387,0,0,1,1.387-1.387h.092a3.619,3.619,0,0,1,7.214,0h.092a1.387,1.387,0,0,1,1.387,1.387v.845a1.387,1.387,0,0,1-1.387,1.387H8.377a.307.307,0,0,1-.307-.307V18.348a2.983,2.983,0,0,0-5.965,0V21.37a.307.307,0,0,1-.169.274,1.876,1.876,0,0,1-.779.014Z" transform="translate(0 -14.729)" fill="#8aa3cf" fill-rule="evenodd"/>
</svg>
