<svg xmlns="http://www.w3.org/2000/svg" width="11.541" height="10.819" viewBox="0 0 11.541 10.819">
  <g id="transfer_1_" data-name="transfer (1)" transform="translate(0 -16.004)">
    <g id="Group_50" data-name="Group 50" transform="translate(0 16.004)">
      <g id="Group_49" data-name="Group 49">
        <path id="Path_59" data-name="Path 59" d="M11.18,17.446H2.885V16.364a.361.361,0,0,0-.616-.255L.105,18.273a.361.361,0,0,0,0,.51l2.164,2.164a.361.361,0,0,0,.616-.255V19.61H11.18a.361.361,0,0,0,.361-.361V17.807A.36.36,0,0,0,11.18,17.446Z" transform="translate(0 -16.004)" fill="#fff"/>
      </g>
    </g>
    <g id="Group_52" data-name="Group 52" transform="translate(0 21.774)">
      <g id="Group_51" data-name="Group 51">
        <path id="Path_60" data-name="Path 60" d="M11.443,274.253l-2.164-2.165a.361.361,0,0,0-.616.255v1.082H.369a.361.361,0,0,0-.361.361v1.443a.361.361,0,0,0,.361.361H8.663v1.082a.361.361,0,0,0,.616.255l2.164-2.164A.361.361,0,0,0,11.443,274.253Z" transform="translate(-0.008 -271.983)" fill="#fff"/>
      </g>
    </g>
  </g>
</svg>
