<svg id="user_3_" data-name="user (3)" xmlns="http://www.w3.org/2000/svg" width="17.374" height="17.374" viewBox="0 0 17.374 17.374">
  <path id="Path_22" data-name="Path 22" d="M169.729,94.457a3.03,3.03,0,1,0,3.03,3.03A3.034,3.034,0,0,0,169.729,94.457Zm0,0" transform="translate(-161.043 -91.252)" fill="#8aa3cf"/>
  <path id="Path_23" data-name="Path 23" d="M8.687,0A8.682,8.682,0,0,0,2.206,14.464,6.658,6.658,0,0,1,6.528,9.659a4.048,4.048,0,1,1,4.318,0,6.663,6.663,0,0,1,4.321,4.807A8.682,8.682,0,0,0,8.687,0Zm0,0" fill="#8aa3cf"/>
  <path id="Path_24" data-name="Path 24" d="M91.1,309.074a8.668,8.668,0,0,0,11.191,0,5.63,5.63,0,0,0-11.191,0Zm0,0" transform="translate(-88.01 -293.748)" fill="#8aa3cf"/>
</svg>
