<svg id="user-avatar" xmlns="http://www.w3.org/2000/svg" width="21.85" height="21.85" viewBox="0 0 21.85 21.85">
  <path id="Path_17" data-name="Path 17" d="M130.571,14.168h.02a5.591,5.591,0,0,0,5.59-5.591V0h-7.238A3.947,3.947,0,0,0,125,3.943V8.524A5.628,5.628,0,0,0,130.571,14.168Z" transform="translate(-119.666)" fill="#758aa7"/>
  <path id="Path_18" data-name="Path 18" d="M20.111,319.463a5.944,5.944,0,0,0-4.2-1.765l-.246,0-.184.163a6.851,6.851,0,0,1-4.554,1.728H10.9a6.829,6.829,0,0,1-4.509-1.728L6.21,317.7H5.966A5.991,5.991,0,0,0,0,323.679v2.309H21.85v-2.309A5.943,5.943,0,0,0,20.111,319.463Z" transform="translate(0 -304.138)" fill="#758aa7"/>
</svg>
