<svg xmlns="http://www.w3.org/2000/svg" width="15.32" height="12.669" viewBox="0 0 15.32 12.669">
  <g id="wallet_5_" data-name="wallet (5)" transform="translate(0 -44.308)">
    <g id="Group_54" data-name="Group 54" transform="translate(0 44.308)">
      <g id="Group_53" data-name="Group 53">
        <path id="Path_63" data-name="Path 63" d="M11.2,48.433H15.32V46.518a2.212,2.212,0,0,0-2.21-2.21H2.21A2.212,2.212,0,0,0,0,46.518v8.249a2.212,2.212,0,0,0,2.21,2.21h10.9a2.212,2.212,0,0,0,2.21-2.21V52.852H11.2a2.21,2.21,0,1,1,0-4.419Z" transform="translate(0 -44.308)" fill="#fff"/>
      </g>
    </g>
    <g id="Group_56" data-name="Group 56" transform="translate(9.87 49.317)">
      <g id="Group_55" data-name="Group 55">
        <path id="Path_64" data-name="Path 64" d="M331.172,211.692a1.326,1.326,0,1,0,0,2.652H335.3v-2.652h-4.125Zm.589,1.768h-.589a.442.442,0,0,1,0-.884h.589a.442.442,0,0,1,0,.884Z" transform="translate(-329.846 -211.692)" fill="#fff"/>
      </g>
    </g>
  </g>
</svg>
