<svg id="Cjdowner-Cryptocurrency-Flat-Tether-USDT" xmlns="http://www.w3.org/2000/svg" width="40" height="40" viewBox="0 0 40 40">
  <circle id="Ellipse_9" data-name="Ellipse 9" cx="20" cy="20" r="20" fill="#26a17b"/>
  <path id="Path_49" data-name="Path 49" d="M20.663,19.639v0c-.136.01-.837.052-2.4.052-1.248,0-2.127-.037-2.436-.052v0c-4.805-.211-8.392-1.048-8.392-2.049s3.587-1.837,8.392-2.052v3.268c.314.022,1.214.075,2.457.075,1.492,0,2.239-.062,2.379-.074V15.542c4.8.214,8.373,1.051,8.373,2.049s-3.578,1.835-8.373,2.048m0-4.437V12.278h6.691V7.819H9.136v4.459h6.691V15.2c-5.438.25-9.527,1.327-9.527,2.618s4.09,2.367,9.527,2.618v9.37h4.836V20.434c5.429-.25,9.509-1.326,9.509-2.615s-4.08-2.365-9.509-2.616" transform="translate(1.486 1.844)" fill="#fff" fill-rule="evenodd"/>
</svg>
