<svg xmlns="http://www.w3.org/2000/svg" width="22.692" height="24.755" viewBox="0 0 22.692 24.755">
  <g id="clock" transform="translate(-17.065)">
    <g id="Group_11" data-name="Group 11" transform="translate(29.443 14.441)">
      <g id="Group_10" data-name="Group 10">
        <path id="Path_13" data-name="Path 13" d="M227.022,238.935a5.157,5.157,0,1,0,5.157,5.157A5.158,5.158,0,0,0,227.022,238.935Zm3.094,5.931h-3.868V241H227.8v2.321h2.321Z" transform="translate(-221.865 -238.935)" fill="#758aa7"/>
      </g>
    </g>
    <g id="Group_13" data-name="Group 13" transform="translate(17.065)">
      <g id="Group_12" data-name="Group 12">
        <path id="Path_14" data-name="Path 14" d="M33.569,0H19.128a2.07,2.07,0,0,0-2.063,2.063V20.629a2.07,2.07,0,0,0,2.063,2.063H27.38V19.6a7.229,7.229,0,0,1,7.22-7.22h1.031V2.063A2.069,2.069,0,0,0,33.569,0ZM20.159,3.094H30.474V5.157H20.159Zm4.126,14.441H20.159V15.472h4.126Zm2.063-4.126H20.159V11.346h6.189Zm6.189-4.126H20.159V7.22H32.537Z" transform="translate(-17.065)" fill="#758aa7"/>
      </g>
    </g>
  </g>
</svg>
