<svg xmlns="http://www.w3.org/2000/svg" width="17.518" height="21.984" viewBox="0 0 17.518 21.984">
  <g id="padlock" transform="translate(-52)">
    <g id="Group_32" data-name="Group 32" transform="translate(52)">
      <g id="Group_31" data-name="Group 31">
        <path id="Path_42" data-name="Path 42" d="M66.942,8.072H65.395V4.541a4.638,4.638,0,0,0-9.274,0V8.072H54.576A2.579,2.579,0,0,0,52,10.648v8.759a2.579,2.579,0,0,0,2.576,2.576H66.942a2.579,2.579,0,0,0,2.576-2.576V10.648A2.579,2.579,0,0,0,66.942,8.072Zm-9.1-3.531a2.921,2.921,0,0,1,5.839,0V8.072H57.838ZM67.8,19.408a.86.86,0,0,1-.859.859H54.576a.86.86,0,0,1-.859-.859V10.648a.86.86,0,0,1,.859-.859H66.942a.86.86,0,0,1,.859.859Z" transform="translate(-52)" fill="#8aa3cf"/>
      </g>
    </g>
    <g id="Group_34" data-name="Group 34" transform="translate(59.171 12.28)">
      <g id="Group_33" data-name="Group 33" transform="translate(0)">
        <path id="Path_43" data-name="Path 43" d="M220.589,286a1.588,1.588,0,0,0-.86,2.924v1.885a.859.859,0,1,0,1.717,0v-1.883a1.588,1.588,0,0,0-.857-2.926Z" transform="translate(-219 -286)" fill="#8aa3cf"/>
      </g>
    </g>
  </g>
</svg>
