<svg id="paper" xmlns="http://www.w3.org/2000/svg" width="15.863" height="15.863" viewBox="0 0 15.863 15.863">
  <path id="Path_26" data-name="Path 26" d="M9.419,0h-7.6A1.817,1.817,0,0,0,0,1.818V12.063A1.817,1.817,0,0,0,1.818,13.88H7.2a4.718,4.718,0,0,1-.919-2.809,4.8,4.8,0,0,1,4.792-4.792,1.381,1.381,0,0,1,.165.007V1.818A1.817,1.817,0,0,0,9.419,0ZM2.644,2.644H5.288a.661.661,0,1,1,0,1.322H2.644a.661.661,0,1,1,0-1.322Zm3.3,6.61h-3.3a.661.661,0,1,1,0-1.322h3.3a.661.661,0,1,1,0,1.322ZM8.593,6.61H2.644a.661.661,0,0,1,0-1.322H8.593a.661.661,0,0,1,0,1.322Z" fill="#8aa3cf"/>
  <path id="Path_27" data-name="Path 27" d="M14.97,18.44a3.47,3.47,0,1,1,3.47-3.47A3.474,3.474,0,0,1,14.97,18.44Zm0-5.618a2.148,2.148,0,1,0,2.148,2.148A2.151,2.151,0,0,0,14.97,12.822Z" transform="translate(-3.899 -3.899)" fill="#8aa3cf"/>
  <path id="Path_28" data-name="Path 28" d="M21.559,22.22a.659.659,0,0,1-.467-.194l-2.148-2.148a.661.661,0,0,1,.935-.935l2.148,2.148a.661.661,0,0,1-.467,1.128Z" transform="translate(-6.357 -6.357)" fill="#8aa3cf"/>
</svg>
