<svg xmlns="http://www.w3.org/2000/svg" width="16.242" height="17.1" viewBox="0 0 16.242 17.1">
  <g id="setting" transform="translate(-13.754 0)">
    <g id="Icon_00000093895562345236468680000002635522421730978688_" transform="translate(13.754 0)">
      <path id="Path_25" data-name="Path 25" d="M23.97.552l.6,1.728a6.78,6.78,0,0,1,1.394.806l1.8-.348a.6.6,0,0,1,.563.193,8.557,8.557,0,0,1,1.646,2.851.6.6,0,0,1-.114.585l-1.2,1.379a6.818,6.818,0,0,1,0,1.611l1.2,1.38a.6.6,0,0,1,.114.585,8.557,8.557,0,0,1-1.646,2.851.6.6,0,0,1-.563.193l-1.794-.348a6.787,6.787,0,0,1-1.4.8l-.6,1.728a.6.6,0,0,1-.449.391,8.558,8.558,0,0,1-3.293,0,.6.6,0,0,1-.449-.391l-.6-1.728a6.779,6.779,0,0,1-1.394-.806l-1.8.348a.6.6,0,0,1-.563-.193,8.557,8.557,0,0,1-1.646-2.851.6.6,0,0,1,.114-.585l1.2-1.379a6.819,6.819,0,0,1,0-1.611l-1.2-1.38a.6.6,0,0,1-.114-.585A8.558,8.558,0,0,1,15.432,2.93a.6.6,0,0,1,.563-.193l1.794.348a6.788,6.788,0,0,1,1.4-.8l.6-1.728A.6.6,0,0,1,20.228.16a8.558,8.558,0,0,1,3.293,0,.6.6,0,0,1,.449.391ZM21.875,5.034a3.516,3.516,0,1,0,3.516,3.516,3.518,3.518,0,0,0-3.516-3.516Zm0,1.193a2.323,2.323,0,1,1-2.323,2.323A2.324,2.324,0,0,1,21.875,6.227Z" transform="translate(-13.754 0)" fill="#8aa3cf" fill-rule="evenodd"/>
    </g>
  </g>
</svg>
