<svg xmlns="http://www.w3.org/2000/svg" width="22.378" height="22.378" viewBox="0 0 22.378 22.378">
  <path id="shopping-bag_2_" data-name="shopping-bag (2)" d="M24.3,12.843c-.114-2.538-.572-5.883-.915-8.19A3.1,3.1,0,0,0,20.3,2H6.117A3.1,3.1,0,0,0,3.029,4.653c-.343,2.422-.686,5.652-.915,8.19C2,15.265,2,18.61,2,21.032a3.02,3.02,0,0,0,2.859,3c2.4.231,5.719.346,8.235.346s5.833-.231,8.235-.346a3.02,3.02,0,0,0,2.859-3,65.234,65.234,0,0,0,.114-8.19Zm-11.094.115a5.514,5.514,0,0,1-5.49-5.537.915.915,0,1,1,1.83,0,3.7,3.7,0,0,0,3.66,3.691,3.779,3.779,0,0,0,3.66-3.691.906.906,0,0,1,.915-.923.845.845,0,0,1,.915.923,5.59,5.59,0,0,1-5.49,5.537Z" transform="translate(-2 -2)" fill="#758aa7"/>
</svg>
