<svg xmlns="http://www.w3.org/2000/svg" width="40" height="40" viewBox="0 0 40 40">
  <g id="surface1" transform="translate(0 0)">
    <path id="Path_80" data-name="Path 80" d="M34.142,5.858A20,20,0,0,0,5.858,34.142,20,20,0,0,0,34.142,5.858ZM20,35.781A15.781,15.781,0,1,1,35.781,20,15.8,15.8,0,0,1,20,35.781Zm0,0" transform="translate(0 0)" fill="#8aa3cf"/>
    <path id="Path_81" data-name="Path 81" d="M95.3,84a11.3,11.3,0,1,0,11.3,11.3A11.318,11.318,0,0,0,95.3,84Zm4.241,15.338a3.018,3.018,0,0,1-.968,1.093,4.2,4.2,0,0,1-1.4.609,6.771,6.771,0,0,1-.891.152v2.3H94.313V101.15a9.069,9.069,0,0,1-1.436-.317A8.134,8.134,0,0,1,90.539,99.7l1.018-1.987a3.205,3.205,0,0,0,.542.392,8.218,8.218,0,0,0,.927.484A7.178,7.178,0,0,0,94.212,99a5.346,5.346,0,0,0,1.335.167q1.9,0,1.9-1.219a1,1,0,0,0-.217-.651,1.844,1.844,0,0,0-.618-.467,5.9,5.9,0,0,0-.968-.367q-.568-.167-1.269-.367a10.764,10.764,0,0,1-1.477-.509,3.878,3.878,0,0,1-1.043-.651,2.434,2.434,0,0,1-.626-.868,3,3,0,0,1-.209-1.177,3.681,3.681,0,0,1,.334-1.6,3.236,3.236,0,0,1,.926-1.169,4.2,4.2,0,0,1,1.377-.71,5.321,5.321,0,0,1,.651-.155V87.1h1.972v2.12a6.172,6.172,0,0,1,1.367.333,8.6,8.6,0,0,1,1.836.927l-1.018,1.87a2.881,2.881,0,0,0-.426-.317,5.207,5.207,0,0,0-.751-.392,6.536,6.536,0,0,0-.96-.326,4.206,4.206,0,0,0-1.052-.133,2.356,2.356,0,0,0-1.419.351,1.16,1.16,0,0,0-.468.985,1.012,1.012,0,0,0,.175.61,1.51,1.51,0,0,0,.509.426,4.273,4.273,0,0,0,.843.334q.509.15,1.177.317.868.234,1.578.5a4.28,4.28,0,0,1,1.2.668,2.764,2.764,0,0,1,.76.96A3.186,3.186,0,0,1,99.9,97.71,3.43,3.43,0,0,1,99.546,99.338Zm0,0" transform="translate(-75.305 -75.305)" fill="#8aa3cf"/>
  </g>
</svg>
