<svg xmlns="http://www.w3.org/2000/svg" width="12.981" height="20.189" viewBox="0 0 12.981 20.189">
  <g id="ticket_3_" data-name="ticket (3)" transform="translate(-91.398)">
    <g id="Group_15" data-name="Group 15" transform="translate(91.398 6.097)">
      <g id="Group_14" data-name="Group 14">
        <path id="Path_15" data-name="Path 15" d="M91.4,154.628v13.5a.591.591,0,0,0,.591.591h3.2a.591.591,0,0,0,.539-.349,2.363,2.363,0,0,1,4.312,0,.591.591,0,0,0,.539.349h3.2a.591.591,0,0,0,.591-.591v-13.5Z" transform="translate(-91.398 -154.628)" fill="#758aa7"/>
      </g>
    </g>
    <g id="Group_17" data-name="Group 17" transform="translate(91.398)">
      <g id="Group_16" data-name="Group 16">
        <path id="Path_16" data-name="Path 16" d="M103.787,0h-3.2a.591.591,0,0,0-.539.349,2.368,2.368,0,0,1-2.156,1.4,2.368,2.368,0,0,1-2.156-1.4A.592.592,0,0,0,95.193,0h-3.2A.591.591,0,0,0,91.4.591V4.914h12.981V.591A.591.591,0,0,0,103.787,0Z" transform="translate(-91.398)" fill="#758aa7"/>
      </g>
    </g>
  </g>
</svg>
