<svg xmlns="http://www.w3.org/2000/svg" width="22.33" height="21.471" viewBox="0 0 22.33 21.471">
  <path id="transaction" d="M25.753,7H8.577A2.577,2.577,0,0,0,6,9.577V25.894a2.577,2.577,0,0,0,2.577,2.577H25.753a2.577,2.577,0,0,0,2.577-2.577V9.577A2.577,2.577,0,0,0,25.753,7ZM10.359,15.919a.859.859,0,0,1,.189-.936l2.577-2.577a.859.859,0,0,1,1.211,1.211L13.227,14.73h9.52a.859.859,0,0,1,0,1.718H11.153A.859.859,0,0,1,10.359,15.919Zm13.853,5-2.577,2.577a.859.859,0,1,1-1.211-1.211l1.108-1.112h-9.52a.859.859,0,1,1,0-1.718H23.606a.856.856,0,0,1,.605,1.464Z" transform="translate(-6 -7)" fill="#8aa3cf"/>
</svg>
